<svg width="281" height="333" viewBox="0 0 281 333" fill="none" xmlns="http://www.w3.org/2000/svg">
<path d="M18.9897 137.675C18.9897 70.3788 73.5439 15.8247 140.84 15.8247V15.8247C208.136 15.8247 262.69 70.3789 262.69 137.675V314.911H18.9897V137.675Z" fill="#3D60CB"/>
<ellipse cx="63.8797" cy="108.385" rx="19.7972" ry="19.8421" fill="white"/>
<ellipse cx="150.878" cy="44.7336" rx="7.5285" ry="7.54559" fill="white"/>
<ellipse cx="246.239" cy="129.066" rx="7.5285" ry="7.54559" fill="white"/>
<path d="M51.4073 113.473L50.2651 108.862L51.2505 108.577L52.2221 112.498L53.2456 112.202L53.4162 112.891L51.4073 113.473Z" fill="#3D60CB"/>
<path d="M55.0169 112.51C54.743 112.606 54.4514 112.626 54.1709 112.569C53.9543 112.512 53.767 112.373 53.6442 112.18C53.4959 111.941 53.3886 111.676 53.327 111.398L52.5418 108.224L53.5135 107.942L54.3375 111.273C54.3609 111.368 54.3919 111.461 54.43 111.551C54.463 111.633 54.5177 111.704 54.588 111.755C54.6654 111.795 54.7552 111.804 54.8399 111.779C54.9247 111.755 54.9983 111.698 55.0467 111.621C55.08 111.539 55.0913 111.45 55.0795 111.362C55.069 111.264 55.0518 111.167 55.0281 111.072L54.2041 107.742L55.1818 107.458L55.968 110.636C56.0435 110.911 56.0717 111.198 56.0513 111.486C56.0326 111.719 55.9346 111.94 55.775 112.108C55.5588 112.308 55.2974 112.446 55.0169 112.51Z" fill="#3D60CB"/>
<path d="M56.9007 111.917L55.7607 107.311L56.4539 107.11L57.9169 109.062L57.368 106.845L58.1816 106.608L59.3216 111.215L58.6566 111.408L57.1519 109.282L57.7435 111.673L56.9007 111.917Z" fill="#3D60CB"/>
<path d="M61.228 110.752C60.952 110.848 60.6573 110.863 60.3775 110.793C60.1535 110.726 59.9604 110.58 59.8307 110.38C59.6801 110.144 59.5712 109.882 59.5086 109.605L59.0973 107.942C59.022 107.665 58.9943 107.375 59.0154 107.085C59.0352 106.842 59.1353 106.612 59.2987 106.434C59.5101 106.224 59.7721 106.078 60.0554 106.013C60.3186 105.921 60.5988 105.901 60.8681 105.957C61.0734 106.01 61.2533 106.135 61.3777 106.312C61.5123 106.51 61.6093 106.734 61.6636 106.971L61.7621 107.369L60.8012 107.648L60.6873 107.188C60.6658 107.101 60.6395 107.015 60.6087 106.931C60.5842 106.857 60.5386 106.792 60.478 106.746C60.4413 106.725 60.4003 106.712 60.3578 106.709C60.3154 106.706 60.2727 106.713 60.2328 106.729C60.1902 106.738 60.1497 106.756 60.114 106.782C60.0783 106.808 60.0483 106.842 60.026 106.881C59.9891 106.955 59.9749 107.039 59.9853 107.121C59.9942 107.214 60.0102 107.306 60.0331 107.397L60.5688 109.562C60.5915 109.657 60.6229 109.749 60.6626 109.837C60.6941 109.911 60.7471 109.974 60.8144 110.015C60.8505 110.034 60.8899 110.045 60.9305 110.047C60.971 110.05 61.0117 110.043 61.0503 110.029C61.0916 110.022 61.131 110.004 61.1655 109.979C61.2 109.953 61.2287 109.92 61.2496 109.882C61.2806 109.807 61.2909 109.725 61.2793 109.645C61.2683 109.554 61.2516 109.463 61.2292 109.374L61.1102 108.893L62.0711 108.614L62.1695 109.012C62.2326 109.25 62.2534 109.499 62.2309 109.747C62.208 109.971 62.1134 110.183 61.9621 110.348C61.806 110.52 61.5613 110.655 61.228 110.752Z" fill="#3D60CB"/>
<path d="M62.9993 110.19L61.8604 105.586L62.8429 105.301L63.3039 107.165L63.9904 106.965L63.5293 105.102L64.5179 104.815L65.6568 109.419L64.6683 109.706L64.1702 107.693L63.4838 107.892L63.9815 109.904L62.9993 110.19Z" fill="#3D60CB"/>
<path d="M68.0826 108.748L67.1306 104.902L66.4603 105.097L66.2729 104.34L68.5983 103.665L68.7857 104.422L68.1204 104.615L69.0725 108.461L68.0826 108.748Z" fill="#3D60CB"/>
<path d="M70.101 108.184L68.9497 103.562L69.9389 103.277L71.0902 107.899L70.101 108.184Z" fill="#3D60CB"/>
<path d="M71.6964 107.729L70.6357 103.108L71.6886 102.803L72.8375 105.335L72.7024 102.508L73.7151 102.214L74.9291 106.79L74.2329 106.992L73.3943 103.956L73.6348 107.166L73.0158 107.346L71.7057 104.422L72.4027 107.524L71.6964 107.729Z" fill="#3D60CB"/>
<path d="M75.461 106.664L74.3188 102.053L76.3227 101.473L76.4948 102.168L75.4763 102.463L75.7598 103.607L76.5338 103.383L76.7085 104.088L75.9315 104.313L76.2727 105.691L77.3023 105.392L77.4729 106.081L75.461 106.664Z" fill="#3D60CB"/>
<rect y="68.9116" width="30.8582" height="30.8582" rx="4.74741" transform="rotate(-15 0 68.9116)" fill="#3D60CB"/>
<path d="M23.021 89.8718C28.3794 87.9268 31.1465 82.0063 29.2015 76.6479C27.2565 71.2895 21.336 68.5224 15.9776 70.4674C10.6192 72.4124 7.85212 78.333 9.79712 83.6913C11.7421 89.0497 17.6627 91.8168 23.021 89.8718Z" fill="white" stroke="#263238" stroke-width="0.791235" stroke-linecap="round" stroke-linejoin="round"/>
<path d="M27.4958 78.7206C26.6939 74.304 22.4635 71.3736 18.0469 72.1755C13.6303 72.9773 10.6999 77.2077 11.5018 81.6243C12.3036 86.041 16.534 88.9713 20.9506 88.1695C25.3672 87.3676 28.2976 83.1372 27.4958 78.7206Z" fill="white" stroke="#263238" stroke-width="0.791235" stroke-linecap="round" stroke-linejoin="round"/>
<path d="M20.5689 80.771C20.4814 80.9255 20.35 81.0505 20.1913 81.13C20.0326 81.2096 19.8538 81.2401 19.6777 81.2177C19.5016 81.1953 19.3361 81.121 19.2024 81.0042C19.0687 80.8874 18.9727 80.7335 18.9268 80.562C18.8808 80.3906 18.887 80.2093 18.9444 80.0413C19.0018 79.8733 19.1079 79.7262 19.2492 79.6188C19.3906 79.5113 19.5607 79.4483 19.7379 79.4379C19.9151 79.4274 20.0914 79.4699 20.2444 79.56C20.4464 79.679 20.5937 79.8726 20.6543 80.0991C20.715 80.3256 20.6843 80.5669 20.5689 80.771V80.771Z" fill="#263238" stroke="#263238" stroke-width="0.791235" stroke-linecap="round" stroke-linejoin="round"/>
<path d="M19.5401 80.5574L18.0413 75.5772L18.1894 74.9838L18.5576 75.4215L19.9138 79.9338L25.9789 79.7233L26.4251 79.8547L26.0154 80.263L19.5401 80.5574Z" fill="#263238" stroke="#263238" stroke-width="0.791235" stroke-linecap="round" stroke-linejoin="round"/>
<circle cx="263.481" cy="53.0126" r="17.4072" fill="#3D60CB"/>
<g clip-path="url(#clip0_10_242)">
<path d="M268.325 47.6735L257.816 44.8577L255.376 53.9653L265.885 56.7811L268.325 47.6735Z" stroke="white" stroke-width="1.58247" stroke-linecap="round" stroke-linejoin="round"/>
<path d="M267.388 51.1763L270.191 51.9272L271.729 54.5921L270.791 58.095L265.886 56.7809L267.388 51.1763Z" stroke="white" stroke-width="1.58247" stroke-linecap="round" stroke-linejoin="round"/>
<path d="M257.591 58.3129C258.558 58.5721 259.552 57.9981 259.811 57.0308C260.071 56.0635 259.497 55.0692 258.529 54.81C257.562 54.5508 256.568 55.1249 256.309 56.0922C256.049 57.0595 256.623 58.0537 257.591 58.3129Z" stroke="white" stroke-width="1.58247" stroke-linecap="round" stroke-linejoin="round"/>
<path d="M266.699 60.7532C267.666 61.0124 268.66 60.4384 268.919 59.4711C269.179 58.5038 268.605 57.5095 267.637 57.2503C266.67 56.9911 265.676 57.5652 265.416 58.5325C265.157 59.4998 265.731 60.494 266.699 60.7532Z" stroke="white" stroke-width="1.58247" stroke-linecap="round" stroke-linejoin="round"/>
</g>
<defs>
<clipPath id="clip0_10_242">
<rect width="17.4072" height="17.4072" fill="white" transform="translate(257.68 42.5681) rotate(15)"/>
</clipPath>
</defs>
</svg>
