<svg width="281" height="333" viewBox="0 0 281 333" fill="none" xmlns="http://www.w3.org/2000/svg">
<path d="M18.9897 137.675C18.9897 70.3788 73.5439 15.8247 140.84 15.8247C208.136 15.8247 262.69 70.3789 262.69 137.675V314.911H18.9897V137.675Z" fill="#3D60CB"/>
<rect y="68.9116" width="30.8582" height="30.8582" rx="4.74741" transform="rotate(-15 0 68.9116)" fill="#3D60CB"/>
<path d="M23.021 89.8718C28.3794 87.9268 31.1465 82.0063 29.2015 76.6479C27.2565 71.2895 21.336 68.5224 15.9776 70.4674C10.6192 72.4124 7.85212 78.333 9.79712 83.6913C11.7421 89.0497 17.6627 91.8168 23.021 89.8718Z" fill="white" stroke="#263238" stroke-width="0.791235" stroke-linecap="round" stroke-linejoin="round"/>
<path d="M27.4958 78.7206C26.6939 74.304 22.4635 71.3736 18.0469 72.1755C13.6303 72.9773 10.6999 77.2077 11.5018 81.6243C12.3036 86.041 16.534 88.9713 20.9506 88.1695C25.3672 87.3676 28.2976 83.1372 27.4958 78.7206Z" fill="white" stroke="#263238" stroke-width="0.791235" stroke-linecap="round" stroke-linejoin="round"/>
<path d="M20.5689 80.771C20.4814 80.9255 20.35 81.0505 20.1913 81.13C20.0326 81.2096 19.8538 81.2401 19.6777 81.2177C19.5016 81.1953 19.3361 81.121 19.2024 81.0042C19.0687 80.8874 18.9727 80.7335 18.9268 80.562C18.8808 80.3906 18.887 80.2093 18.9444 80.0413C19.0018 79.8733 19.1079 79.7262 19.2492 79.6188C19.3906 79.5113 19.5607 79.4483 19.7379 79.4379C19.9151 79.4274 20.0914 79.4699 20.2444 79.56C20.4464 79.679 20.5937 79.8726 20.6543 80.0991C20.715 80.3256 20.6843 80.5669 20.5689 80.771Z" fill="#263238" stroke="#263238" stroke-width="0.791235" stroke-linecap="round" stroke-linejoin="round"/>
<path d="M19.5401 80.5574L18.0413 75.5772L18.1894 74.9838L18.5576 75.4215L19.9138 79.9338L25.9789 79.7233L26.4251 79.8547L26.0154 80.263L19.5401 80.5574Z" fill="#263238" stroke="#263238" stroke-width="0.791235" stroke-linecap="round" stroke-linejoin="round"/>
<circle cx="263.481" cy="53.0126" r="17.4072" fill="#3D60CB"/>
<g clip-path="url(#clip0_57_22)">
<path d="M268.325 47.6735L257.816 44.8577L255.376 53.9653L265.884 56.7811L268.325 47.6735Z" stroke="white" stroke-width="1.58247" stroke-linecap="round" stroke-linejoin="round"/>
<path d="M267.388 51.1763L270.19 51.9272L271.729 54.5921L270.79 58.095L265.886 56.7809L267.388 51.1763Z" stroke="white" stroke-width="1.58247" stroke-linecap="round" stroke-linejoin="round"/>
<path d="M257.59 58.3129C258.558 58.5721 259.552 57.9981 259.811 57.0308C260.07 56.0635 259.496 55.0692 258.529 54.81C257.561 54.5508 256.567 55.1249 256.308 56.0922C256.049 57.0595 256.623 58.0537 257.59 58.3129Z" stroke="white" stroke-width="1.58247" stroke-linecap="round" stroke-linejoin="round"/>
<path d="M266.699 60.7532C267.666 61.0124 268.66 60.4384 268.919 59.4711C269.179 58.5038 268.605 57.5095 267.637 57.2503C266.67 56.9911 265.676 57.5652 265.416 58.5325C265.157 59.4998 265.731 60.494 266.699 60.7532Z" stroke="white" stroke-width="1.58247" stroke-linecap="round" stroke-linejoin="round"/>
</g>
<defs>
<clipPath id="clip0_57_22">
<rect width="17.4072" height="17.4072" fill="white" transform="translate(257.68 42.5681) rotate(15)"/>
</clipPath>
</defs>
</svg>
