<svg width="30" height="30" viewBox="0 0 30 30" fill="none" xmlns="http://www.w3.org/2000/svg">
<path d="M15 3.75C15 3.75 22.7325 10.425 27.0537 14.04C27.1913 14.1598 27.302 14.3072 27.3789 14.4726C27.4558 14.638 27.497 14.8176 27.5 15C27.5 15.3315 27.3683 15.6495 27.1339 15.8839C26.8995 16.1183 26.5815 16.25 26.25 16.25H23.75V25C23.75 25.3315 23.6183 25.6495 23.3839 25.8839C23.1495 26.1183 22.8315 26.25 22.5 26.25H18.75C18.4185 26.25 18.1005 26.1183 17.8661 25.8839C17.6317 25.6495 17.5 25.3315 17.5 25V20H12.5V25C12.5 25.3315 12.3683 25.6495 12.1339 25.8839C11.8995 26.1183 11.5815 26.25 11.25 26.25H7.5C7.16848 26.25 6.85054 26.1183 6.61612 25.8839C6.38169 25.6495 6.25 25.3315 6.25 25V16.25H3.75C3.41848 16.25 3.10054 16.1183 2.86612 15.8839C2.63169 15.6495 2.5 15.3315 2.5 15C2.50175 14.8141 2.54576 14.6311 2.6287 14.4648C2.71165 14.2985 2.83135 14.1532 2.97875 14.04C7.27 10.425 15 3.75 15 3.75Z" fill="#707070"/>
</svg>
