<svg width="30" height="30" viewBox="0 0 30 30" fill="none" xmlns="http://www.w3.org/2000/svg">
<g clip-path="url(#clip0_213_26)">
<path d="M3.59998 2.99996C3.59998 2.99996 6.38198 2.91796 7.49198 3.99996C8.55998 5.03996 8.99998 5.83596 8.99998 7.99996H27.6L24.812 17.628C24.806 17.644 24.792 17.658 24.786 17.672C24.316 18.986 23.09 19.932 21.628 19.988L21.602 20H8.60197V20.4C8.60197 20.4 8.59998 21 8.99998 21.8C9.39997 22.6 9.59998 23 11.2 23H24.2C26.2 23 26.2 26 24.2 26H11.4C8.99998 26 7.19998 24.6 6.59998 23.2C5.99998 21.8 5.99998 20.6 5.99998 20.6V7.99996C5.99998 6.95196 5.54198 5.99996 4.59998 5.99996H3.49998C3.10215 5.99996 2.72062 5.84192 2.43932 5.56062C2.15801 5.27931 1.99998 4.89778 1.99998 4.49996C1.99998 4.10213 2.15801 3.7206 2.43932 3.4393C2.72062 3.15799 3.10215 2.99996 3.49998 2.99996H3.59998ZM11.6 26C12.8 26 13.6 26.8 13.6 28C13.6 29.2 12.8 30 11.6 30C10.4 30 9.59998 29.2 9.59998 28C9.59998 26.8 10.4 26 11.6 26ZM21.6 26C22.8 26 23.6 26.8 23.6 28C23.6 29.2 22.8 30 21.6 30C20.4 30 19.6 29.2 19.6 28C19.6 26.8 20.4 26 21.6 26Z" fill="#707070"/>
</g>
<defs>
<clipPath id="clip0_213_26">
<rect width="30" height="30" fill="white"/>
</clipPath>
</defs>
</svg>
