<svg width="30" height="30" viewBox="0 0 30 30" fill="none" xmlns="http://www.w3.org/2000/svg">
<path d="M25.5084 20.4333C24.1693 18.9825 22.5443 17.8247 20.7358 17.0328C18.9273 16.2409 16.9743 15.832 15 15.832C13.0257 15.832 11.0728 16.2409 9.26423 17.0328C7.4557 17.8247 5.83073 18.9825 4.49169 20.4333C4.28495 20.6619 4.16931 20.9585 4.16669 21.2667V26.2667C4.17107 26.5953 4.3047 26.909 4.53864 27.1398C4.77259 27.3706 5.08803 27.5 5.41669 27.5H24.5834C24.9149 27.5 25.2328 27.3683 25.4672 27.1339C25.7017 26.8995 25.8334 26.5815 25.8334 26.25V21.25C25.8267 20.9476 25.7113 20.6576 25.5084 20.4333Z" fill="#707070"/>
<path d="M15 14.1667C18.2217 14.1667 20.8334 11.555 20.8334 8.33333C20.8334 5.11167 18.2217 2.5 15 2.5C11.7784 2.5 9.16669 5.11167 9.16669 8.33333C9.16669 11.555 11.7784 14.1667 15 14.1667Z" fill="#707070"/>
</svg>
