<svg width="30" height="30" viewBox="0 0 30 30" fill="none" xmlns="http://www.w3.org/2000/svg">
<path d="M2.7832 6.09374H25.3125V3.01874C25.3125 2.88002 25.2817 2.74303 25.2224 2.61764C25.163 2.49225 25.0766 2.38159 24.9693 2.29365C24.8621 2.2057 24.7366 2.14266 24.602 2.10907C24.4674 2.07549 24.327 2.07218 24.191 2.09941L2.62852 5.64316C2.46795 5.67512 2.31856 5.74857 2.1952 5.8562C2.07185 5.96383 1.97882 6.10189 1.92539 6.25663C2.19848 6.14866 2.48955 6.09339 2.7832 6.09374ZM27.1582 7.49999H2.7832C2.53456 7.49999 2.29611 7.59877 2.12029 7.77458C1.94448 7.9504 1.8457 8.18885 1.8457 8.43749V25.3125C1.8457 25.5611 1.94448 25.7996 2.12029 25.9754C2.29611 26.1512 2.53456 26.25 2.7832 26.25H27.1582C27.4068 26.25 27.6453 26.1512 27.8211 25.9754C27.9969 25.7996 28.0957 25.5611 28.0957 25.3125V8.43749C28.0957 8.18885 27.9969 7.9504 27.8211 7.77458C27.6453 7.59877 27.4068 7.49999 27.1582 7.49999ZM21.5625 18.75C21.1917 18.75 20.8291 18.64 20.5208 18.434C20.2125 18.228 19.9721 17.9351 19.8302 17.5925C19.6883 17.2499 19.6512 16.8729 19.7235 16.5092C19.7959 16.1455 19.9745 15.8114 20.2367 15.5492C20.4989 15.2869 20.833 15.1084 21.1967 15.036C21.5604 14.9637 21.9374 15.0008 22.28 15.1427C22.6226 15.2846 22.9155 15.525 23.1215 15.8333C23.3275 16.1416 23.4375 16.5042 23.4375 16.875C23.4375 17.3723 23.24 17.8492 22.8883 18.2008C22.5367 18.5524 22.0598 18.75 21.5625 18.75Z" fill="#707070"/>
<path d="M1.83569 15.2051V6.79688C1.83569 6.07441 2.17085 5.71406 2.73921 5.625C4.80171 5.30098 9.10132 5.12695 9.10132 5.12695C9.10132 5.12695 8.61323 6.06445 7.49995 6.06445V7.5C8.58394 7.5 9.33569 8.87695 9.33569 8.87695L4.97046 13.8281L1.83569 15.2051Z" fill="#707070"/>
</svg>
