<svg width="20" height="20" viewBox="0 0 20 20" fill="none" xmlns="http://www.w3.org/2000/svg">
<path d="M4.375 2.5C3.87772 2.5 3.40081 2.69754 3.04917 3.04917C2.69754 3.40081 2.5 3.87772 2.5 4.375V15.6242C2.5 16.1214 2.69754 16.5984 3.04917 16.95C3.40081 17.3016 3.87772 17.4992 4.375 17.4992H9.30333L9.6 16.3125L9.61667 16.2492H4.375C4.20924 16.2492 4.05027 16.1833 3.93306 16.0661C3.81585 15.9489 3.75 15.7899 3.75 15.6242V4.37417C3.75 4.20841 3.81585 4.04944 3.93306 3.93223C4.05027 3.81501 4.20924 3.74917 4.375 3.74917H15.6242C15.7899 3.74917 15.9489 3.81501 16.0661 3.93223C16.1833 4.04944 16.2492 4.20841 16.2492 4.37417V9.36C16.6475 9.20167 17.0767 9.14 17.4992 9.17667V4.375C17.4992 4.1287 17.4506 3.88482 17.3564 3.65728C17.2621 3.42974 17.1239 3.223 16.9497 3.04888C16.7755 2.87476 16.5687 2.73667 16.3411 2.64249C16.1135 2.54831 15.8696 2.49989 15.6233 2.5H4.37333H4.375ZM12.795 12.4992H9.37417C9.20841 12.4992 9.04943 12.565 8.93222 12.6822C8.81501 12.7994 8.74917 12.9584 8.74917 13.1242C8.74917 13.2899 8.81501 13.4489 8.93222 13.5661C9.04943 13.6833 9.20841 13.7492 9.37417 13.7492H11.545L12.795 12.4992ZM7.29083 6.87417C7.29083 7.09518 7.20304 7.30714 7.04676 7.46342C6.89048 7.6197 6.67851 7.7075 6.4575 7.7075C6.23649 7.7075 6.02452 7.6197 5.86824 7.46342C5.71196 7.30714 5.62417 7.09518 5.62417 6.87417C5.62417 6.65315 5.71196 6.44119 5.86824 6.28491C6.02452 6.12863 6.23649 6.04083 6.4575 6.04083C6.67851 6.04083 6.89048 6.12863 7.04676 6.28491C7.20304 6.44119 7.29083 6.65315 7.29083 6.87417ZM9.37417 6.24917C9.20841 6.24917 9.04943 6.31501 8.93222 6.43222C8.81501 6.54944 8.74917 6.70841 8.74917 6.87417C8.74917 7.03993 8.81501 7.1989 8.93222 7.31611C9.04943 7.43332 9.20841 7.49917 9.37417 7.49917H13.9575C14.1233 7.49917 14.2822 7.43332 14.3994 7.31611C14.5167 7.1989 14.5825 7.03993 14.5825 6.87417C14.5825 6.70841 14.5167 6.54944 14.3994 6.43222C14.2822 6.31501 14.1233 6.24917 13.9575 6.24917H9.37417ZM9.37417 9.37417C9.29209 9.37417 9.21082 9.39033 9.13499 9.42174C9.05916 9.45315 8.99026 9.49919 8.93222 9.55722C8.87419 9.61526 8.82815 9.68416 8.79674 9.75999C8.76533 9.83582 8.74917 9.91709 8.74917 9.99917C8.74917 10.0812 8.76533 10.1625 8.79674 10.2383C8.82815 10.3142 8.87419 10.3831 8.93222 10.4411C8.99026 10.4991 9.05916 10.5452 9.13499 10.5766C9.21082 10.608 9.29209 10.6242 9.37417 10.6242H13.9575C14.0396 10.6242 14.1208 10.608 14.1967 10.5766C14.2725 10.5452 14.3414 10.4991 14.3994 10.4411C14.4575 10.3831 14.5035 10.3142 14.5349 10.2383C14.5663 10.1625 14.5825 10.0812 14.5825 9.99917C14.5825 9.91709 14.5663 9.83582 14.5349 9.75999C14.5035 9.68416 14.4575 9.61526 14.3994 9.55722C14.3414 9.49919 14.2725 9.45315 14.1967 9.42174C14.1208 9.39033 14.0396 9.37417 13.9575 9.37417H9.37417ZM6.45833 10.8333C6.67935 10.8333 6.89131 10.7455 7.04759 10.5893C7.20387 10.433 7.29167 10.221 7.29167 10C7.29167 9.77899 7.20387 9.56702 7.04759 9.41074C6.89131 9.25446 6.67935 9.16667 6.45833 9.16667C6.23732 9.16667 6.02536 9.25446 5.86908 9.41074C5.7128 9.56702 5.625 9.77899 5.625 10C5.625 10.221 5.7128 10.433 5.86908 10.5893C6.02536 10.7455 6.23732 10.8333 6.45833 10.8333ZM7.29167 13.125C7.29167 13.346 7.20387 13.558 7.04759 13.7143C6.89131 13.8705 6.67935 13.9583 6.45833 13.9583C6.23732 13.9583 6.02536 13.8705 5.86908 13.7143C5.7128 13.558 5.625 13.346 5.625 13.125C5.625 12.904 5.7128 12.692 5.86908 12.5357C6.02536 12.3795 6.23732 12.2917 6.45833 12.2917C6.67935 12.2917 6.89131 12.3795 7.04759 12.5357C7.20387 12.692 7.29167 12.904 7.29167 13.125ZM15.9167 10.5583L10.9983 15.4758C10.7113 15.7627 10.5076 16.1222 10.4092 16.5158L10.0283 18.0408C9.86167 18.705 10.4633 19.3058 11.1267 19.14L12.6517 18.7583C13.0453 18.6601 13.4047 18.4568 13.6917 18.17L18.6083 13.25C18.9563 12.8909 19.1492 12.4093 19.1452 11.9092C19.1412 11.4091 18.9408 10.9306 18.5871 10.5771C18.2334 10.2235 17.7549 10.0232 17.2548 10.0194C16.7547 10.0156 16.2732 10.2085 15.9142 10.5567L15.9167 10.5583Z" fill="#20B780"/>
</svg>
