<svg width="30" height="30" viewBox="0 0 30 30" fill="none" xmlns="http://www.w3.org/2000/svg">
<circle cx="15" cy="15" r="15" fill="#20B780"/>
<path d="M14.8333 23.0029C13.7808 22.1051 12.8052 21.1209 11.9167 20.0604C10.5833 18.4679 9 16.0963 9 13.8363C8.99942 12.6821 9.34126 11.5536 9.98225 10.5938C10.6232 9.63393 11.5346 8.88581 12.6009 8.44409C13.6672 8.00237 14.8406 7.88692 15.9726 8.11233C17.1046 8.33775 18.1442 8.89391 18.96 9.71042C19.5031 10.2511 19.9336 10.8942 20.2266 11.6024C20.5195 12.3106 20.6691 13.0699 20.6667 13.8363C20.6667 16.0963 19.0833 18.4679 17.75 20.0604C16.8615 21.1208 15.8859 22.1051 14.8333 23.0029ZM14.8333 11.3363C14.1703 11.3363 13.5344 11.5997 13.0656 12.0685C12.5967 12.5373 12.3333 13.1732 12.3333 13.8363C12.3333 14.4993 12.5967 15.1352 13.0656 15.604C13.5344 16.0729 14.1703 16.3363 14.8333 16.3363C15.4964 16.3363 16.1323 16.0729 16.6011 15.604C17.0699 15.1352 17.3333 14.4993 17.3333 13.8363C17.3333 13.1732 17.0699 12.5373 16.6011 12.0685C16.1323 11.5997 15.4964 11.3363 14.8333 11.3363Z" fill="white"/>
</svg>
